Simulation
nRows=32
nColumns=15
endheader
time  TH_x TH_y TH_z SC_y  SC_z  SC_x  AC_y  AC_z  AC_x  GH_y  GH_z  GH_yy  EL_x  PS_y
8.043  0.000000  0.000000  0.000000  -21.185128791845194  2.0830944724057807  -7.188740220665969  57.52913658798672  12.351041913983725  6.278521277251109  -5.749898862687893  7.158254754393798  59.943377392841676  17.30850500341599  120.000000
8.09662  0.000000  0.000000  0.000000  -20.753992469476476  1.6592085826513223  -8.767611720941474  57.16908094039057  12.322737610436253  6.6912390074006085  -1.7323665945142064  8.979281202000253  55.58674950499849  16.71062126736495  120.000000
8.15024  0.000000  0.000000  0.000000  -20.251909593776944  1.2757503516255209  -10.453156329734554  56.85553541976939  12.460436714887802  7.279442812563242  1.9218619355905873  11.071300918065843  51.351060761004376  15.96199521521057  120.000000
8.20386  0.000000  0.000000  0.000000  -19.728389177262546  0.9390543693825542  -12.206799096836237  56.66067162619161  12.775439739223106  8.052074569609488  5.138110765914144  13.53168237613636  47.24223604783358  15.117139640610347  120.000000
8.257480000000001  0.000000  0.000000  0.000000  -19.249497292473936  0.6499831832689241  -13.980397572051825  56.650637351451635  13.273729219107464  9.011805196336468  7.767767994849916  16.45918385224771  43.36020927225744  14.248945699681315  120.000000
8.3111  0.000000  0.000000  0.000000  -18.86174786501354  0.4138859714321798  -15.73644304997306  56.89600283189082  13.95183397504505  10.150945254777778  9.67516695721763  19.912977236221067  39.83802910030626  13.437680317238767  120.000000
8.36472  0.000000  0.000000  0.000000  -18.59069862725163  0.23250538967796525  -17.45969567524385  57.45091956049378  14.807912216910527  11.461605285468535  10.80226271559392  23.88496694142742  36.76146247949844  12.742820747374905  120.000000
8.41834  0.000000  0.000000  0.000000  -18.45180731433611  0.1087218733544485  -19.165847740459512  58.339707002549524  15.86589403086592  12.940103007547652  11.23296830923047  28.302280608711865  34.113224024260695  12.184376515802901  120.000000
8.47196  0.000000  0.000000  0.000000  -18.458160735515005  0.04750801106376046  -20.882285372114055  59.537321042277256  17.16391348567588  14.566140467343441  11.148578079019968  33.038218201888014  31.82124663281929  11.745008864894086  120.000000
8.52558  0.000000  0.000000  0.000000  -18.603338128914395  0.06045712304938195  -22.609270353802255  60.974533708589576  18.723050018346804  16.269638084764885  10.773537077505013  37.93034357393265  29.799317058708066  11.391147160293487  120.000000
8.5792  0.000000  0.000000  0.000000  -18.84741588484392  0.15226617158134628  -24.29294933140173  62.534563069229456  20.526720781004492  17.960981050077486  10.351089415819738  42.80575586564568  27.929420955242534  11.099123765261918  120.000000
8.63282  0.000000  0.000000  0.000000  -19.125487110265688  0.3103436186821658  -25.828190043354017  64.07020781543453  22.51806649432126  19.52743916881108  10.078835013135901  47.509541542439884  26.08729312261941  10.859376882217903  120.000000
8.686440000000001  0.000000  0.000000  0.000000  -19.366958237538594  0.5262855647886271  -27.09288223931247  65.45939302225108  24.614733835343547  20.816827988600338  10.059900677470722  51.920462359876225  24.169248990365038  10.663575032839098  120.000000
8.74006  0.000000  0.000000  0.000000  -19.527846437450304  0.7808142875387776  -27.974883257104324  66.60921326092186  26.72251772655701  21.71851809794628  10.30499127890981  55.95084555024239  22.110180800482013  10.507048906637651  120.000000
8.79368  0.000000  0.000000  0.000000  -19.611074655989835  1.0454131831490792  -28.397096028144194  67.46865594262682  28.73276070486077  22.203167925373457  10.759756795623705  59.56091701398117  19.886658258343882  10.386256730077738  120.000000
8.8473  0.000000  0.000000  0.000000  -19.65273179671586  1.2935452916505066  -28.337157028214968  68.03305400920524  30.534841939989278  22.30715312555747  11.330765241545997  62.749228273011205  17.51862181000313  10.29843025049671  120.000000
8.90092  0.000000  0.000000  0.000000  -19.692959922826574  1.5023155954308192  -27.83718956450029  68.3324998108885  32.043213369175724  22.117866970383208  11.92441874092113  65.53591635886812  15.056339725372737  10.244526532807688  120.000000
8.95454  0.000000  0.000000  0.000000  -19.752709914750675  1.6677529459735774  -26.991116625462137  68.42795772643106  33.21973361513109  21.74290395456899  12.469591820538657  67.95707926923058  12.566837233548986  10.225607042784876  120.000000
9.00816  0.000000  0.000000  0.000000  -19.834264892196796  1.8163739301986013  -25.92632843251739  68.38430444456864  34.08734654600281  21.30459099475324  12.915456707166452  70.04545301061607  10.131892746624667  10.239966035469488  120.000000
9.06178  0.000000  0.000000  0.000000  -19.937348096145428  1.9958787093120505  -24.783027739095054  68.25056994679215  34.71471759975419  20.924700057279605  13.233719517265543  71.8241163056142  7.837112814040153  10.276993076664125  120.000000
9.115400000000001  0.000000  0.000000  0.000000  -20.064088071108454  2.230868175360291  -23.659737899338438  68.06330681428754  35.16433935884662  20.66745292905705  13.42628087825359  73.32286143892654  5.763670674014243  10.320552806117622  120.000000
9.16902  0.000000  0.000000  0.000000  -20.216698012727896  2.50655328753378  -22.597152150402497  67.85580875714466  35.46644554976476  20.52091754476515  13.519756930239149  74.5853444217122  3.97839736077645  10.353570454575793  120.000000
9.22264  0.000000  0.000000  0.000000  -20.391283815372518  2.795822370069877  -21.61827974033313  67.6547774735143  35.643000747093815  20.44991131424497  13.54902028913256  75.64964359669936  2.5280878296041362  10.36334798816801  120.000000
9.27626  0.000000  0.000000  0.000000  -20.574889003652164  3.0709949926127726  -20.746565732567756  67.482715143343  35.71089476920687  20.417913423165064  13.547609930205832  76.53997790611932  1.433209014910172  10.346405422857803  120.000000
9.32988  0.000000  0.000000  0.000000  -20.74790060875781  3.3054816768883026  -20.009411679836  67.35885528042355  35.6767035645205  20.391789370385073  13.54370977267402  77.26440776502932  0.6894024092817891  10.310457608362876  120.000000
9.3835  0.000000  0.000000  0.000000  -20.886857139288196  3.4812770411993426  -19.442142655079834  67.29763590363777  35.54652475284418  20.35347014540417  13.559974573850226  77.81138892318434  0.27559488640964935  10.269083060414792  120.000000
9.43712  0.000000  0.000000  0.000000  -20.969803769616313  3.5887727326696504  -19.08106452037695  67.30850901010797  35.328596025706304  20.298041679994167  13.615300868186807  78.15388918199857  0.16707832392018124  10.234344223190924  120.000000
9.49074  0.000000  0.000000  0.000000  -20.98411760896538  3.623605264007624  -18.95618497276644  67.39122234369567  35.03174500396726  20.231318632450915  13.724543906470533  78.25207887273858  0.34686214841798235  10.209070707581517  120.000000
9.544360000000001  0.000000  0.000000  0.000000  -20.929412729825092  3.5851519069077873  -19.08709857333698  67.53349091554618  34.66378635733512  20.166305661671284  13.896837348977844  78.05607413064617  0.8108128053356328  10.183634223199908  120.000000
9.59798  0.000000  0.000000  0.000000  -20.815567050633526  3.4754755983302466  -19.48007941922337  67.71131437041271  34.229843287168364  20.120969573664684  14.134149668803083  77.50772977760869  1.5652567567595321  10.140690200480256  120.000000
9.6516  0.000000  0.000000  0.000000  -20.656105060071575  3.2979464410367947  -20.12632901087837  67.89125943107935  33.73150494986419  20.115595373233614  14.428926756658711  76.54312017600449  2.6186589973016847  10.065471730740107  120.000000
9.70522  0.000000  0.000000  0.000000  -20.46152525510881  3.057653264596976  -20.999321591591023  68.03202730652384  33.16811493645806  20.16860698934175  14.7626378198159  75.09709666858393  3.972943706449646  9.958376494031128  120.000000
